<?xml version="1.0" encoding="utf-8" ?>
<svg xmlns="http://www.w3.org/2000/svg" xmlns:xlink="http://www.w3.org/1999/xlink" width="194" height="259">
	<path fill="#FAC72D" d="M94.7852 55.377C109.871 54.6596 124.173 57.3465 137.421 64.7479C153.751 73.8719 165.235 88.4067 170.307 106.431Q170.778 108.166 171.165 109.921Q171.551 111.677 171.851 113.449Q172.151 115.221 172.365 117.006Q172.578 118.791 172.705 120.584Q172.831 122.377 172.87 124.174Q172.909 125.972 172.86 127.769Q172.811 129.565 172.675 131.358Q172.539 133.15 172.315 134.934Q172.092 136.717 171.782 138.488Q171.472 140.259 171.076 142.012Q170.68 143.766 170.199 145.498Q169.719 147.23 169.154 148.936Q168.589 150.643 167.942 152.32Q167.295 153.997 166.567 155.64Q165.839 157.284 165.032 158.89Q164.225 160.496 163.34 162.061Q162.882 162.887 162.404 163.702Q161.925 164.517 161.426 165.32Q160.928 166.122 160.409 166.912Q159.891 167.702 159.353 168.478Q158.815 169.255 158.257 170.018Q157.7 170.781 157.124 171.53Q156.548 172.279 155.953 173.013Q155.358 173.747 154.745 174.466Q154.133 175.186 153.502 175.889Q152.871 176.593 152.224 177.281Q151.576 177.968 150.911 178.64Q150.246 179.311 149.564 179.965Q148.883 180.62 148.185 181.257Q147.488 181.894 146.774 182.514Q146.061 183.134 145.333 183.735Q144.604 184.337 143.861 184.92Q143.117 185.504 142.36 186.068Q141.602 186.633 140.831 187.178Q140.059 187.724 139.274 188.25Q138.489 188.776 137.692 189.282Q136.894 189.788 136.084 190.275Q135.274 190.761 134.451 191.227Q133.629 191.692 132.796 192.138Q131.963 192.583 131.118 193.007Q130.274 193.431 129.42 193.834Q128.565 194.237 127.701 194.619Q126.836 195 125.963 195.36Q125.089 195.72 124.207 196.058Q123.324 196.396 122.434 196.712Q121.543 197.028 120.645 197.321Q119.747 197.615 118.842 197.886Q117.937 198.157 117.025 198.405C114.262 199.178 104.918 201.654 102.635 200.368C102.152 200.698 101.67 200.807 101.098 200.879C98.6467 201.192 96.1088 201.152 93.6424 201.125C77.6977 200.953 62.8986 194.893 50.3654 185.185C36.0956 174.131 27.3232 157.773 25.0874 139.969C22.6269 120.376 27.7743 101.31 39.8815 85.725C53.9795 67.577 72.1995 58.2026 94.7852 55.377Z"/>
	<path fill="#DEA73D" d="M97.2387 68.8906C112.866 67.7896 128.326 73.6005 140.157 83.6941Q141.249 84.609 142.294 85.5771Q143.339 86.5453 144.334 87.5644Q145.329 88.5835 146.273 89.651Q147.216 90.7185 148.105 91.8317Q148.993 92.9449 149.826 94.101Q150.658 95.2572 151.431 96.4534Q152.205 97.6496 152.918 98.8829Q153.63 100.116 154.281 101.384Q154.931 102.651 155.518 103.949Q156.104 105.247 156.625 106.573Q157.146 107.899 157.6 109.249Q158.054 110.599 158.44 111.971Q158.827 113.342 159.144 114.73Q159.461 116.119 159.709 117.522Q159.957 118.925 160.134 120.338Q160.311 121.751 160.418 123.172Q160.552 124.697 160.611 126.228Q160.67 127.758 160.653 129.289Q160.636 130.82 160.543 132.349Q160.451 133.877 160.282 135.399Q160.114 136.922 159.871 138.433Q159.627 139.945 159.309 141.443Q158.992 142.941 158.6 144.422Q158.208 145.902 157.744 147.361Q157.28 148.821 156.743 150.255Q156.207 151.689 155.601 153.096Q154.995 154.502 154.32 155.876Q153.644 157.251 152.902 158.59Q152.16 159.929 151.352 161.23Q150.544 162.531 149.673 163.791Q148.802 165.05 147.87 166.265Q146.937 167.48 145.946 168.647C133.95 182.675 119.571 189.31 101.313 190.73C85.8152 191.299 71.6377 187.022 59.6717 176.928Q58.5166 175.972 57.4103 174.961Q56.3041 173.949 55.2495 172.884Q54.1949 171.818 53.1945 170.702Q52.1942 169.585 51.2505 168.42Q50.3069 167.255 49.4222 166.045Q48.5376 164.835 47.7142 163.582Q46.8908 162.329 46.1306 161.037Q45.3705 159.745 44.6755 158.417Q43.9805 157.089 43.3523 155.727Q42.7241 154.366 42.1644 152.976Q41.6046 151.585 41.1146 150.168Q40.6246 148.751 40.2056 147.312Q39.7866 145.873 39.4396 144.414Q39.0927 142.956 38.8186 141.482Q38.5445 140.008 38.344 138.522Q38.1435 137.037 38.017 135.543Q37.8971 134.026 37.8511 132.505Q37.8052 130.984 37.8333 129.463Q37.8615 127.942 37.9637 126.424Q38.0659 124.906 38.2419 123.394Q38.4178 121.883 38.6672 120.382Q38.9165 118.881 39.2387 117.394Q39.5608 115.907 39.955 114.437Q40.3491 112.967 40.8143 111.519Q41.2796 110.07 41.8148 108.646Q42.35 107.221 42.9539 105.825Q43.5578 104.428 44.229 103.063Q44.9002 101.697 45.6371 100.366Q46.374 99.0346 47.1748 97.7408Q47.9756 96.447 48.8385 95.1938Q49.7013 93.9405 50.6242 92.7308Q51.547 91.521 52.5277 90.3576C63.977 76.8197 79.8652 70.3565 97.2387 68.8906Z"/>
	<path fill="#CB5826" d="M121.084 105.236Q120.978 104.978 120.889 104.714C120.307 102.972 120.28 100.893 121.125 99.2383C121.945 97.6333 123.484 96.5461 125.172 96.0058C127.752 95.1797 129.659 95.9328 131.947 97.125C133.87 98.509 135.855 99.8621 137.514 101.566C142.595 106.787 146.115 114.938 147.276 122.054C149.191 133.796 145.432 146.119 138.531 155.645C131.153 165.829 118.98 174.19 106.44 176.179C95.9387 177.844 79.6303 176.04 70.8007 169.662C69.8637 168.985 69.1437 168.238 68.5316 167.255L68.4939 166.596C70.2864 167.683 71.9378 168.136 73.9946 168.513C76.2689 167.844 78.3843 166.992 79.6123 164.806C80.7043 162.861 80.4882 160.858 79.9062 158.806C81.2932 158.975 82.7594 159.787 84.049 160.331C87.2349 161.676 90.0239 162.403 93.4995 162.553C103.993 163.005 114.14 158.87 121.795 151.788C128.035 146.015 132.398 137.738 132.682 129.138C132.936 121.433 129.418 115.779 124.88 109.968C123.639 108.379 122.462 106.71 121.084 105.236Z"/>
	<path fill="#FAF7F6" d="M68.4939 166.596C66.8622 164.598 64.3808 162.981 62.642 160.877C57.2035 154.294 53.9643 144.256 53.0341 135.82C51.7915 124.552 55.2566 110.561 62.402 101.661C70.3444 91.7676 81.7703 83.9389 94.5716 82.5621C98.2282 82.1689 101.999 82.0894 105.639 82.6599C113.323 83.864 122.296 88.0266 128.336 92.916C129.407 93.7831 131.798 95.6909 131.947 97.125C129.659 95.9328 127.752 95.1797 125.172 96.0058C123.484 96.5461 121.945 97.6333 121.125 99.2383C120.28 100.893 120.307 102.972 120.889 104.714Q120.978 104.978 121.084 105.236C121.041 105.227 120.997 105.219 120.954 105.209C119.324 104.843 116.084 101.936 114.44 100.955C105.608 95.6883 94.0691 95.0055 85.1225 100.331C77.3982 104.929 70.7865 112.225 68.5714 121.065C66.2729 130.237 66.873 140.556 71.8106 148.797C73.2782 151.246 77.6994 157.179 79.9062 158.806C80.4882 160.858 80.7043 162.861 79.6123 164.806C78.3843 166.992 76.2689 167.844 73.9946 168.513C71.9378 168.136 70.2864 167.683 68.4939 166.596Z"/>
	<path fill="#DEA73D" d="M79.9062 158.806C77.6994 157.179 73.2782 151.246 71.8106 148.797C66.873 140.556 66.2729 130.237 68.5714 121.065C70.7865 112.225 77.3982 104.929 85.1225 100.331C94.0691 95.0055 105.608 95.6883 114.44 100.955C116.084 101.936 119.324 104.843 120.954 105.209C120.997 105.219 121.041 105.227 121.084 105.236C122.462 106.71 123.639 108.379 124.88 109.968C129.418 115.779 132.936 121.433 132.682 129.138C132.398 137.738 128.035 146.015 121.795 151.788C114.14 158.87 103.993 163.005 93.4995 162.553C90.0239 162.403 87.2349 161.676 84.049 160.331C82.7594 159.787 81.2932 158.975 79.9062 158.806Z"/>
	<path fill="#CB5826" d="M101.429 108.829C102.178 108.695 103.11 108.701 103.871 108.735C106.578 108.855 109.351 110.045 111.17 112.074Q111.453 112.391 111.703 112.734Q111.953 113.078 112.168 113.444Q112.383 113.81 112.56 114.196Q112.738 114.582 112.877 114.983Q113.015 115.385 113.114 115.798Q113.212 116.211 113.269 116.632Q113.326 117.053 113.341 117.478Q113.356 117.902 113.329 118.326C112.757 127.286 103.2 123.542 99.0136 127.332C97.3903 128.802 97.5445 131.173 97.4233 133.184C99.9859 133.432 102.684 133.583 105.135 134.416C107.299 135.151 109.216 136.394 110.226 138.524C111.114 140.396 111.132 142.587 110.434 144.519C109.526 147.033 107.781 148.577 105.416 149.682C104.58 149.925 103.721 150.189 102.859 150.326C97.8011 151.126 91.0842 149.552 86.94 146.546C83.3593 143.948 81.5705 140.097 80.9113 135.804C79.9492 129.539 81.3822 122.396 85.193 117.267C89.0959 112.014 95.1645 109.755 101.429 108.829Z"/>
</svg>
